<?xml version="1.0" standalone="no"?>
<!DOCTYPE svg PUBLIC "-//W3C//DTD SVG 20010904//EN"
 "http://www.w3.org/TR/2001/REC-SVG-20010904/DTD/svg10.dtd">
<svg version="1.0" xmlns="http://www.w3.org/2000/svg"
 width="256.000000pt" height="256.000000pt" viewBox="0 0 256.000000 256.000000"
 preserveAspectRatio="xMidYMid meet">
<metadata>
Created by potrace 1.16, written by Peter Selinger 2001-2019
</metadata>
<g transform="translate(0.000000,256.000000) scale(0.100000,-0.100000)"
fill="#000000" stroke="none">
<path d="M1026 2552 c-3 -5 -44 -14 -91 -21 -47 -7 -85 -18 -85 -23 0 -6 -12
-7 -27 -4 -19 4 -23 4 -14 -3 10 -6 2 -11 -28 -16 -22 -4 -41 -11 -41 -16 0
-5 -11 -11 -25 -15 -14 -3 -25 -10 -25 -14 0 -4 -9 -10 -20 -13 -11 -3 -18 -1
-14 4 3 5 0 9 -6 9 -6 0 -13 -7 -16 -15 -4 -8 -12 -15 -20 -15 -8 0 -14 -4
-14 -9 0 -5 -23 -20 -50 -32 -28 -12 -50 -26 -50 -30 0 -4 -9 -11 -20 -14 -11
-4 -18 -11 -15 -16 4 -5 2 -9 -4 -9 -13 0 -181 -168 -181 -180 0 -5 -14 -23
-30 -40 -17 -17 -30 -35 -30 -40 0 -6 -7 -10 -15 -10 -8 0 -15 -8 -15 -18 0
-10 -8 -25 -17 -34 -35 -33 -43 -46 -31 -50 8 -3 4 -12 -10 -23 -12 -11 -22
-24 -22 -30 0 -5 5 -3 10 5 6 9 10 10 10 3 0 -6 -7 -18 -15 -27 -8 -8 -15 -23
-15 -33 0 -11 -6 -28 -14 -38 -8 -11 -12 -25 -9 -32 3 -7 1 -13 -5 -13 -6 0
-13 -18 -17 -40 -4 -22 -10 -40 -15 -40 -4 0 -11 -29 -15 -65 -3 -36 -10 -65
-15 -65 -13 0 -4 -475 11 -557 7 -40 16 -73 20 -73 4 0 11 -20 15 -45 3 -25
10 -43 14 -40 4 2 13 -20 20 -50 7 -30 17 -55 21 -55 5 0 14 -18 20 -40 7 -22
16 -40 21 -40 5 0 7 -4 4 -9 -4 -5 -3 -17 0 -26 5 -13 9 -14 15 -4 5 8 10 -1
14 -24 4 -21 13 -37 20 -37 8 0 17 -9 20 -21 9 -27 41 -59 51 -51 3 4 5 0 2
-8 -4 -13 12 -39 40 -64 7 -6 45 -42 84 -81 40 -38 68 -63 64 -55 -4 8 3 4 16
-10 13 -14 36 -31 51 -39 15 -8 27 -18 27 -23 0 -4 9 -8 20 -8 11 0 23 -7 26
-15 4 -8 17 -15 30 -15 13 0 24 -4 24 -9 0 -5 14 -12 30 -16 17 -4 28 -11 25
-16 -4 -5 1 -6 9 -3 9 3 16 2 16 -4 0 -5 17 -13 38 -17 20 -3 46 -13 58 -20
11 -7 43 -17 70 -21 27 -4 52 -12 56 -18 10 -16 626 -15 636 1 4 6 25 14 47
18 22 4 46 12 52 17 7 6 20 8 28 4 8 -3 15 -1 15 4 0 5 16 12 35 16 20 3 32
11 28 17 -4 6 3 8 21 3 14 -3 26 -2 26 3 0 5 11 12 25 15 14 4 23 11 20 16 -3
6 1 10 9 10 8 0 22 7 30 16 9 8 20 12 26 9 5 -3 10 -1 10 6 0 7 3 10 6 6 3 -3
20 8 37 24 17 16 36 28 43 25 13 -5 48 27 39 36 -3 3 5 8 18 12 13 3 29 17 37
31 7 14 15 23 18 21 8 -9 119 109 114 121 -2 7 8 17 22 23 17 6 24 14 20 25
-3 8 -2 15 4 15 5 0 15 13 22 30 7 16 16 28 20 25 5 -3 11 9 15 26 4 17 13 33
20 36 8 2 17 18 20 34 4 16 11 27 16 23 5 -3 10 3 10 13 3 38 4 44 16 51 7 4
15 28 18 52 3 25 13 61 22 80 9 19 16 47 14 63 -1 15 2 27 8 27 5 0 10 8 9 18
0 9 5 55 11 102 13 105 13 271 0 370 -6 41 -10 84 -10 95 0 10 -4 24 -8 30 -5
5 -12 30 -16 55 -4 25 -12 51 -17 57 -6 7 -8 22 -5 33 3 11 0 26 -7 33 -7 7
-11 18 -8 26 2 7 -2 17 -9 22 -14 8 -15 13 -18 52 0 10 -5 16 -10 13 -5 -4
-12 7 -16 24 -4 16 -11 30 -17 30 -6 0 -8 6 -5 14 3 8 -1 17 -9 20 -8 3 -14
12 -14 21 0 8 -5 14 -12 12 -6 -1 -14 7 -16 18 -2 11 -13 28 -23 38 -11 10
-17 22 -14 26 2 5 -4 11 -15 14 -14 3 -18 10 -14 22 5 11 0 18 -15 22 -11 3
-21 10 -21 15 0 14 -26 38 -41 38 -7 0 -10 3 -6 6 6 7 -24 41 -31 36 -3 -2
-12 8 -22 22 -9 15 -20 23 -23 19 -4 -3 -7 -2 -7 4 0 6 -9 13 -20 16 -11 3
-19 11 -18 18 2 8 -7 15 -20 17 -12 2 -20 7 -17 12 2 4 -9 13 -25 20 -17 7
-30 16 -30 20 0 4 -7 11 -16 14 -8 3 -12 2 -9 -4 10 -16 0 -12 -25 10 -13 11
-29 20 -37 20 -8 0 -11 5 -7 12 4 7 3 8 -5 4 -6 -4 -18 0 -27 8 -8 9 -27 16
-40 16 -14 0 -23 4 -20 9 3 5 -10 12 -29 15 -19 4 -35 11 -35 16 0 5 -7 7 -15
4 -8 -4 -21 -2 -28 4 -6 5 -31 13 -54 17 -24 4 -45 10 -48 15 -2 4 -15 5 -29
3 -13 -3 -27 0 -30 6 -9 13 -502 16 -510 3z m392 -182 c474 -60 857 -421 947
-893 19 -102 19 -293 -1 -397 -43 -231 -149 -425 -321 -591 -137 -132 -304
-226 -490 -276 -86 -23 -118 -26 -263 -27 -138 0 -179 3 -253 22 -541 135
-882 604 -846 1162 17 249 122 479 307 672 242 251 577 371 920 328z"/>
<path d="M1150 2313 c-292 -46 -530 -186 -702 -413 -68 -89 -143 -246 -174
-365 -24 -88 -27 -119 -27 -255 0 -136 4 -168 27 -255 67 -254 219 -469 435
-613 166 -111 324 -162 531 -169 302 -11 544 78 755 279 221 211 327 453 327
753 0 151 -16 242 -65 373 -65 173 -192 346 -338 458 -125 96 -298 171 -458
199 -76 14 -249 18 -311 8z m393 -42 c357 -95 638 -378 734 -736 23 -88 26
-119 26 -255 0 -135 -3 -168 -26 -252 -113 -425 -460 -723 -894 -767 -425 -44
-830 184 -1018 573 -65 136 -94 246 -102 392 -27 504 313 947 807 1055 118 26
360 21 473 -10z"/>
<path d="M1185 2041 c-476 -76 -765 -552 -606 -1000 41 -116 86 -186 181 -281
98 -97 164 -139 287 -184 84 -30 94 -31 243 -31 144 0 161 2 235 28 119 42
209 99 300 191 93 94 145 179 181 291 153 480 -181 965 -681 989 -49 3 -113 1
-140 -3z m289 -31 c152 -39 311 -142 401 -262 177 -233 204 -534 73 -798 -34
-68 -60 -103 -133 -175 -102 -102 -167 -144 -292 -188 -83 -30 -96 -32 -233
-32 -137 0 -150 2 -233 32 -125 44 -190 86 -292 188 -105 104 -161 203 -196
345 -28 111 -23 290 11 390 84 249 279 436 522 500 102 26 269 27 372 0z"/>
<path d="M1145 1953 c-234 -50 -425 -224 -502 -458 -23 -69 -26 -97 -26 -205
-1 -111 2 -134 28 -209 75 -219 253 -387 475 -447 87 -23 253 -23 340 0 375
101 592 495 475 865 -104 329 -449 527 -790 454z m191 -142 c61 -37 65 -114 9
-163 -39 -34 -32 -48 25 -48 47 0 50 -2 50 -25 0 -23 -3 -25 -49 -25 l-50 0 4
-32 c2 -18 6 -98 9 -178 10 -271 66 -400 174 -400 41 0 128 47 161 87 35 42
45 73 25 73 -19 0 -18 7 7 47 23 37 32 35 62 -16 18 -30 18 -31 0 -31 -14 0
-22 -12 -31 -46 -32 -120 -124 -194 -357 -288 l-89 -36 -71 26 c-105 40 -225
101 -271 140 -53 43 -103 118 -110 166 -5 28 -11 38 -25 38 -11 0 -19 2 -19 5
0 10 45 75 52 75 6 0 48 -66 48 -76 0 -2 -6 -4 -14 -4 -24 0 -6 -41 39 -85 78
-79 173 -94 228 -37 62 65 84 163 94 410 l6 162 -51 0 c-49 0 -52 2 -52 25 0
23 3 25 49 25 28 0 53 5 57 11 3 6 -8 23 -26 37 -43 37 -51 95 -20 135 39 49
86 59 136 28z m204 -318 c0 -9 16 -13 45 -13 52 0 57 -12 15 -37 -32 -18 -36
-35 -20 -79 6 -15 9 -28 7 -30 -2 -2 -19 8 -39 22 l-37 26 -35 -27 c-39 -30
-42 -26 -24 25 11 32 10 35 -28 67 l-39 33 51 0 51 0 13 43 13 42 13 -30 c7
-16 13 -36 14 -42z m-540 -138 c11 -13 15 -13 33 0 46 32 97 8 97 -45 0 -37
-14 -44 -115 -60 -77 -12 -80 -12 -97 10 -37 45 -12 110 42 110 15 0 33 -7 40
-15z"/>
</g>
</svg>
